<svg xmlns="http://www.w3.org/2000/svg" width="1280" height="720" viewBox="0 0 1280 720" role="img" aria-labelledby="title desc">
  <title id="title">SearchLint diagnostics screenshot</title>
  <desc id="desc">A deterministic VS Code marketplace screenshot showing SearchLint diagnostics for a searchlint.seo file.</desc>
  <rect width="1280" height="720" fill="#0f172a" />
  <rect x="0" y="0" width="1280" height="44" fill="#111827" />
  <circle cx="24" cy="22" r="6" fill="#ef4444" />
  <circle cx="46" cy="22" r="6" fill="#f59e0b" />
  <circle cx="68" cy="22" r="6" fill="#22c55e" />
  <text x="104" y="28" font-family="Inter, Arial, sans-serif" font-size="16" fill="#e5e7eb">searchlint.seo - SearchLint</text>
  <rect x="0" y="44" width="256" height="676" fill="#111827" />
  <text x="24" y="88" font-family="Inter, Arial, sans-serif" font-size="18" fill="#f9fafb">Explorer</text>
  <text x="32" y="128" font-family="Inter, Arial, sans-serif" font-size="16" fill="#93c5fd">searchlint.seo</text>
  <rect x="256" y="44" width="704" height="676" fill="#0b1120" />
  <rect x="960" y="44" width="320" height="676" fill="#111827" />
  <text x="288" y="92" font-family="Menlo, Consolas, monospace" font-size="18" fill="#cbd5e1">language 1</text>
  <text x="288" y="130" font-family="Menlo, Consolas, monospace" font-size="18" fill="#cbd5e1">site "https://example.com"</text>
  <text x="288" y="168" font-family="Menlo, Consolas, monospace" font-size="18" fill="#cbd5e1">route "/products/**" &#123;</text>
  <text x="320" y="206" font-family="Menlo, Consolas, monospace" font-size="18" fill="#cbd5e1">indexable true</text>
  <text x="320" y="244" font-family="Menlo, Consolas, monospace" font-size="18" fill="#fca5a5">severity SL-INDEX-001 fatal</text>
  <path d="M320 252h312" stroke="#ef4444" stroke-width="4" stroke-linecap="round" />
  <text x="288" y="282" font-family="Menlo, Consolas, monospace" font-size="18" fill="#cbd5e1">&#125;</text>
  <rect x="992" y="82" width="256" height="120" rx="8" fill="#1f2937" />
  <text x="1016" y="118" font-family="Inter, Arial, sans-serif" font-size="18" fill="#f9fafb">Problems</text>
  <text x="1016" y="154" font-family="Inter, Arial, sans-serif" font-size="15" fill="#fca5a5">SLANG203</text>
  <text x="1016" y="182" font-family="Inter, Arial, sans-serif" font-size="14" fill="#d1d5db">Unknown severity override.</text>
  <rect x="288" y="610" width="640" height="64" rx="8" fill="#162033" />
  <text x="312" y="648" font-family="Inter, Arial, sans-serif" font-size="18" fill="#bfdbfe">SearchLint diagnostics use shared DSL validation and stable rule IDs.</text>
</svg>
